G75*
%MOIN*%
%OFA0B0*%
%FSLAX24Y24*%
%IPPOS*%
%LPD*%
%AMOC8*
5,1,8,0,0,1.08239X$1,22.5*
%
%ADD10C,0.0000*%
D10*
X004935Y000100D02*
X004935Y025550D01*
X039007Y025550D01*
X039007Y000100D01*
X004935Y000100D01*
X006471Y001281D02*
X006473Y001322D01*
X006479Y001363D01*
X006489Y001403D01*
X006502Y001442D01*
X006519Y001479D01*
X006540Y001515D01*
X006564Y001549D01*
X006591Y001580D01*
X006620Y001608D01*
X006653Y001634D01*
X006687Y001656D01*
X006724Y001675D01*
X006762Y001690D01*
X006802Y001702D01*
X006842Y001710D01*
X006883Y001714D01*
X006925Y001714D01*
X006966Y001710D01*
X007006Y001702D01*
X007046Y001690D01*
X007084Y001675D01*
X007120Y001656D01*
X007155Y001634D01*
X007188Y001608D01*
X007217Y001580D01*
X007244Y001549D01*
X007268Y001515D01*
X007289Y001479D01*
X007306Y001442D01*
X007319Y001403D01*
X007329Y001363D01*
X007335Y001322D01*
X007337Y001281D01*
X007335Y001240D01*
X007329Y001199D01*
X007319Y001159D01*
X007306Y001120D01*
X007289Y001083D01*
X007268Y001047D01*
X007244Y001013D01*
X007217Y000982D01*
X007188Y000954D01*
X007155Y000928D01*
X007121Y000906D01*
X007084Y000887D01*
X007046Y000872D01*
X007006Y000860D01*
X006966Y000852D01*
X006925Y000848D01*
X006883Y000848D01*
X006842Y000852D01*
X006802Y000860D01*
X006762Y000872D01*
X006724Y000887D01*
X006688Y000906D01*
X006653Y000928D01*
X006620Y000954D01*
X006591Y000982D01*
X006564Y001013D01*
X006540Y001047D01*
X006519Y001083D01*
X006502Y001120D01*
X006489Y001159D01*
X006479Y001199D01*
X006473Y001240D01*
X006471Y001281D01*
X006685Y011713D02*
X006687Y011738D01*
X006693Y011762D01*
X006702Y011784D01*
X006715Y011805D01*
X006731Y011824D01*
X006750Y011840D01*
X006771Y011853D01*
X006793Y011862D01*
X006817Y011868D01*
X006842Y011870D01*
X006867Y011868D01*
X006891Y011862D01*
X006913Y011853D01*
X006934Y011840D01*
X006953Y011824D01*
X006969Y011805D01*
X006982Y011784D01*
X006991Y011762D01*
X006997Y011738D01*
X006999Y011713D01*
X006997Y011688D01*
X006991Y011664D01*
X006982Y011642D01*
X006969Y011621D01*
X006953Y011602D01*
X006934Y011586D01*
X006913Y011573D01*
X006891Y011564D01*
X006867Y011558D01*
X006842Y011556D01*
X006817Y011558D01*
X006793Y011564D01*
X006771Y011573D01*
X006750Y011586D01*
X006731Y011602D01*
X006715Y011621D01*
X006702Y011642D01*
X006693Y011664D01*
X006687Y011688D01*
X006685Y011713D01*
X006685Y013287D02*
X006687Y013312D01*
X006693Y013336D01*
X006702Y013358D01*
X006715Y013379D01*
X006731Y013398D01*
X006750Y013414D01*
X006771Y013427D01*
X006793Y013436D01*
X006817Y013442D01*
X006842Y013444D01*
X006867Y013442D01*
X006891Y013436D01*
X006913Y013427D01*
X006934Y013414D01*
X006953Y013398D01*
X006969Y013379D01*
X006982Y013358D01*
X006991Y013336D01*
X006997Y013312D01*
X006999Y013287D01*
X006997Y013262D01*
X006991Y013238D01*
X006982Y013216D01*
X006969Y013195D01*
X006953Y013176D01*
X006934Y013160D01*
X006913Y013147D01*
X006891Y013138D01*
X006867Y013132D01*
X006842Y013130D01*
X006817Y013132D01*
X006793Y013138D01*
X006771Y013147D01*
X006750Y013160D01*
X006731Y013176D01*
X006715Y013195D01*
X006702Y013216D01*
X006693Y013238D01*
X006687Y013262D01*
X006685Y013287D01*
X008242Y023525D02*
X008244Y023566D01*
X008250Y023607D01*
X008260Y023647D01*
X008273Y023686D01*
X008290Y023723D01*
X008311Y023759D01*
X008335Y023793D01*
X008362Y023824D01*
X008391Y023852D01*
X008424Y023878D01*
X008458Y023900D01*
X008495Y023919D01*
X008533Y023934D01*
X008573Y023946D01*
X008613Y023954D01*
X008654Y023958D01*
X008696Y023958D01*
X008737Y023954D01*
X008777Y023946D01*
X008817Y023934D01*
X008855Y023919D01*
X008891Y023900D01*
X008926Y023878D01*
X008959Y023852D01*
X008988Y023824D01*
X009015Y023793D01*
X009039Y023759D01*
X009060Y023723D01*
X009077Y023686D01*
X009090Y023647D01*
X009100Y023607D01*
X009106Y023566D01*
X009108Y023525D01*
X009106Y023484D01*
X009100Y023443D01*
X009090Y023403D01*
X009077Y023364D01*
X009060Y023327D01*
X009039Y023291D01*
X009015Y023257D01*
X008988Y023226D01*
X008959Y023198D01*
X008926Y023172D01*
X008892Y023150D01*
X008855Y023131D01*
X008817Y023116D01*
X008777Y023104D01*
X008737Y023096D01*
X008696Y023092D01*
X008654Y023092D01*
X008613Y023096D01*
X008573Y023104D01*
X008533Y023116D01*
X008495Y023131D01*
X008459Y023150D01*
X008424Y023172D01*
X008391Y023198D01*
X008362Y023226D01*
X008335Y023257D01*
X008311Y023291D01*
X008290Y023327D01*
X008273Y023364D01*
X008260Y023403D01*
X008250Y023443D01*
X008244Y023484D01*
X008242Y023525D01*
X037349Y019969D02*
X037351Y020000D01*
X037357Y020030D01*
X037366Y020060D01*
X037379Y020088D01*
X037396Y020114D01*
X037416Y020137D01*
X037438Y020159D01*
X037463Y020177D01*
X037490Y020192D01*
X037519Y020203D01*
X037549Y020211D01*
X037580Y020215D01*
X037610Y020215D01*
X037641Y020211D01*
X037671Y020203D01*
X037700Y020192D01*
X037727Y020177D01*
X037752Y020159D01*
X037774Y020137D01*
X037794Y020114D01*
X037811Y020088D01*
X037824Y020060D01*
X037833Y020030D01*
X037839Y020000D01*
X037841Y019969D01*
X037839Y019938D01*
X037833Y019908D01*
X037824Y019878D01*
X037811Y019850D01*
X037794Y019824D01*
X037774Y019801D01*
X037752Y019779D01*
X037727Y019761D01*
X037700Y019746D01*
X037671Y019735D01*
X037641Y019727D01*
X037610Y019723D01*
X037580Y019723D01*
X037549Y019727D01*
X037519Y019735D01*
X037490Y019746D01*
X037463Y019761D01*
X037438Y019779D01*
X037416Y019801D01*
X037396Y019824D01*
X037379Y019850D01*
X037366Y019878D01*
X037357Y019908D01*
X037351Y019938D01*
X037349Y019969D01*
X037618Y022829D02*
X037620Y022870D01*
X037626Y022911D01*
X037636Y022951D01*
X037649Y022990D01*
X037666Y023027D01*
X037687Y023063D01*
X037711Y023097D01*
X037738Y023128D01*
X037767Y023156D01*
X037800Y023182D01*
X037834Y023204D01*
X037871Y023223D01*
X037909Y023238D01*
X037949Y023250D01*
X037989Y023258D01*
X038030Y023262D01*
X038072Y023262D01*
X038113Y023258D01*
X038153Y023250D01*
X038193Y023238D01*
X038231Y023223D01*
X038267Y023204D01*
X038302Y023182D01*
X038335Y023156D01*
X038364Y023128D01*
X038391Y023097D01*
X038415Y023063D01*
X038436Y023027D01*
X038453Y022990D01*
X038466Y022951D01*
X038476Y022911D01*
X038482Y022870D01*
X038484Y022829D01*
X038482Y022788D01*
X038476Y022747D01*
X038466Y022707D01*
X038453Y022668D01*
X038436Y022631D01*
X038415Y022595D01*
X038391Y022561D01*
X038364Y022530D01*
X038335Y022502D01*
X038302Y022476D01*
X038268Y022454D01*
X038231Y022435D01*
X038193Y022420D01*
X038153Y022408D01*
X038113Y022400D01*
X038072Y022396D01*
X038030Y022396D01*
X037989Y022400D01*
X037949Y022408D01*
X037909Y022420D01*
X037871Y022435D01*
X037835Y022454D01*
X037800Y022476D01*
X037767Y022502D01*
X037738Y022530D01*
X037711Y022561D01*
X037687Y022595D01*
X037666Y022631D01*
X037649Y022668D01*
X037636Y022707D01*
X037626Y022747D01*
X037620Y022788D01*
X037618Y022829D01*
X037349Y016820D02*
X037351Y016851D01*
X037357Y016881D01*
X037366Y016911D01*
X037379Y016939D01*
X037396Y016965D01*
X037416Y016988D01*
X037438Y017010D01*
X037463Y017028D01*
X037490Y017043D01*
X037519Y017054D01*
X037549Y017062D01*
X037580Y017066D01*
X037610Y017066D01*
X037641Y017062D01*
X037671Y017054D01*
X037700Y017043D01*
X037727Y017028D01*
X037752Y017010D01*
X037774Y016988D01*
X037794Y016965D01*
X037811Y016939D01*
X037824Y016911D01*
X037833Y016881D01*
X037839Y016851D01*
X037841Y016820D01*
X037839Y016789D01*
X037833Y016759D01*
X037824Y016729D01*
X037811Y016701D01*
X037794Y016675D01*
X037774Y016652D01*
X037752Y016630D01*
X037727Y016612D01*
X037700Y016597D01*
X037671Y016586D01*
X037641Y016578D01*
X037610Y016574D01*
X037580Y016574D01*
X037549Y016578D01*
X037519Y016586D01*
X037490Y016597D01*
X037463Y016612D01*
X037438Y016630D01*
X037416Y016652D01*
X037396Y016675D01*
X037379Y016701D01*
X037366Y016729D01*
X037357Y016759D01*
X037351Y016789D01*
X037349Y016820D01*
X035998Y001281D02*
X036000Y001322D01*
X036006Y001363D01*
X036016Y001403D01*
X036029Y001442D01*
X036046Y001479D01*
X036067Y001515D01*
X036091Y001549D01*
X036118Y001580D01*
X036147Y001608D01*
X036180Y001634D01*
X036214Y001656D01*
X036251Y001675D01*
X036289Y001690D01*
X036329Y001702D01*
X036369Y001710D01*
X036410Y001714D01*
X036452Y001714D01*
X036493Y001710D01*
X036533Y001702D01*
X036573Y001690D01*
X036611Y001675D01*
X036647Y001656D01*
X036682Y001634D01*
X036715Y001608D01*
X036744Y001580D01*
X036771Y001549D01*
X036795Y001515D01*
X036816Y001479D01*
X036833Y001442D01*
X036846Y001403D01*
X036856Y001363D01*
X036862Y001322D01*
X036864Y001281D01*
X036862Y001240D01*
X036856Y001199D01*
X036846Y001159D01*
X036833Y001120D01*
X036816Y001083D01*
X036795Y001047D01*
X036771Y001013D01*
X036744Y000982D01*
X036715Y000954D01*
X036682Y000928D01*
X036648Y000906D01*
X036611Y000887D01*
X036573Y000872D01*
X036533Y000860D01*
X036493Y000852D01*
X036452Y000848D01*
X036410Y000848D01*
X036369Y000852D01*
X036329Y000860D01*
X036289Y000872D01*
X036251Y000887D01*
X036215Y000906D01*
X036180Y000928D01*
X036147Y000954D01*
X036118Y000982D01*
X036091Y001013D01*
X036067Y001047D01*
X036046Y001083D01*
X036029Y001120D01*
X036016Y001159D01*
X036006Y001199D01*
X036000Y001240D01*
X035998Y001281D01*
M02*
