%
M48
M72
T01C0.0120
T02C0.0315
T03C0.0350
T04C0.0394
T05C0.0400
T06C0.0433
T07C0.0492
T08C0.0866
%
T01
X6109Y24151
X6687Y22833
X8475Y24160
X9615Y23500
X10035Y24280
X10935Y23740
X11835Y23680
X11835Y23320
X12255Y23380
X12315Y22960
X12735Y22960
X12915Y22360
X13215Y22180
X13515Y22060
X13815Y21880
X13815Y21550
X14055Y20920
X14385Y20800
X14655Y20530
X14055Y19180
X13995Y18820
X13905Y18520
X13875Y18220
X13875Y17890
X13755Y17590
X13545Y17260
X13695Y16990
X13515Y16720
X13515Y16420
X13125Y16270
X12645Y15940
X12285Y16030
X12015Y15820
X11595Y15550
X12195Y15220
X12852Y15006
X14475Y15100
X14655Y15640
X16155Y16720
X16455Y17260
X16455Y17620
X17895Y17380
X18945Y16720
X19092Y17824
X19515Y18700
X19575Y19180
X19215Y19180
X18855Y19180
X18495Y19180
X18135Y19180
X19995Y19180
X20415Y19180
X20715Y20800
X21075Y20800
X21435Y20800
X21795Y20800
X23175Y21280
X23505Y21340
X23895Y21130
X24195Y21220
X25155Y21280
X25515Y21280
X26895Y19420
X27195Y19060
X27555Y18760
X28095Y18880
X27675Y19480
X28395Y20020
X29715Y20620
X29655Y21700
X29235Y21700
X30075Y21700
X31515Y21160
X33075Y21460
X34635Y21040
X35025Y20620
X35595Y20560
X35325Y19900
X34785Y19900
X33975Y20080
X32775Y19180
X32595Y18880
X31815Y18880
X31815Y18520
X31875Y19240
X30015Y19240
X29655Y17920
X27795Y17440
X27495Y18160
X26775Y16930
X25815Y16660
X24195Y16240
X23955Y15760
X23775Y15220
X23115Y15130
X23085Y14140
X22695Y14020
X22395Y13540
X22395Y13000
X21975Y14020
X21615Y14020
X21465Y15280
X22365Y16840
X21705Y17110
X22095Y17620
X22815Y17440
X23325Y17470
X23355Y17890
X23415Y18460
X25215Y18460
X27885Y16540
X27435Y16090
X27435Y15100
X29025Y14230
X26535Y12880
X25095Y13540
X25935Y11140
X23595Y10930
X23055Y10930
X22455Y10930
X22455Y10330
X22455Y9790
X23055Y9790
X23595Y9790
X23595Y10330
X23055Y10330
X25215Y9010
X25935Y7420
X26055Y6940
X25215Y7240
X23895Y7210
X23175Y7210
X21585Y7210
X20865Y7240
X20535Y7660
X20535Y8440
X19935Y8500
X19545Y8530
X19935Y9220
X19665Y9670
X19575Y10540
X19935Y10840
X19695Y11140
X19755Y11500
X19515Y11800
X19455Y12280
X19815Y12460
X19815Y12880
X19575Y13300
X19575Y13660
X18705Y14410
X19095Y14500
X18165Y12820
X15615Y13120
X15315Y12640
X14895Y12640
X14475Y12640
X15435Y11860
X16125Y10510
X16065Y9580
X16005Y9040
X13935Y9280
X13395Y9280
X12855Y9280
X12375Y9280
X11895Y9280
X12255Y9940
X12615Y9940
X12975Y9940
X13335Y9940
X13935Y9940
X13455Y8320
X13095Y8080
X13965Y7030
X14325Y7030
X10575Y5020
X10575Y4480
X10575Y3940
X10575Y3340
X10575Y2800
X11235Y2800
X11835Y2800
X11775Y3580
X12135Y3580
X12495Y3580
X12855Y3580
X9156Y3016
X8463Y3022
X8415Y3580
X8055Y3580
X7655Y3580
X7275Y3580
X7455Y3001
X6615Y3013
X5769Y3046
X5775Y3640
X5775Y4300
X5775Y5020
X5685Y7150
X5325Y7150
X7455Y8020
X6795Y9340
X6795Y10180
X8415Y9880
X10095Y9100
X10035Y8620
X9795Y8020
X9525Y7030
X10065Y7030
X5955Y11740
X5955Y12220
X5955Y12640
X5955Y13120
X8415Y12400
X9555Y13900
X10455Y13660
X8115Y15940
X9765Y17170
X10095Y17170
X10125Y16840
X11115Y17320
X11715Y18220
X12945Y17560
X10335Y20500
X9615Y21040
X9855Y21280
X10155Y21520
X8595Y20590
X8115Y19780
X7785Y19780
X7755Y19300
X7725Y18970
X6915Y18340
X6525Y18340
X6075Y18400
X5685Y18400
X5355Y18400
X5265Y18010
X5595Y16660
X5595Y16000
X5775Y19420
X5475Y19840
X12855Y20860
X14625Y22210
X14715Y22570
X15015Y22810
X14265Y24550
X11715Y24940
X17835Y20800
X17895Y20440
X18255Y20800
X18615Y20800
X18975Y20800
X19335Y20800
X15255Y13720
X27495Y5380
X28095Y5980
X30195Y8350
X30255Y8860
X30255Y9760
X29685Y11260
X29685Y12130
X32655Y10720
X33015Y10720
X33255Y9700
X33435Y9100
X28055Y8770
X33555Y13120
X34335Y15220
X32715Y16060
X35025Y16840
X35865Y16840
X34335Y17560
X33795Y17620
X35265Y18400
X35265Y18760
X36375Y19720
X36705Y19960
X31395Y23260
X25965Y3100
X24945Y3010
X24615Y3010
X21255Y2950
X20475Y2920
T02
X6842Y11713
X6842Y13287
T03
X8535Y24980
X7535Y24980
X6535Y24980
X5535Y24980
X9535Y24980
X10535Y24980
T04
X7354Y11093
X7354Y13907
T05
X12595Y1740
X13595Y1740
X14595Y1740
X15595Y1740
X16595Y1740
X17595Y1740
X18595Y1740
X19595Y1740
X20595Y1740
X21595Y1740
X22595Y1740
X23595Y1740
X24595Y1740
X25595Y1740
X26595Y1740
X27595Y1740
X28595Y1740
X29595Y1740
X30595Y1740
X31595Y1740
X31595Y740
X30595Y740
X29595Y740
X28595Y740
X27595Y740
X26595Y740
X25595Y740
X24595Y740
X23595Y740
X22595Y740
X21595Y740
X20595Y740
X19595Y740
X18595Y740
X17595Y740
X16595Y740
X15595Y740
X14595Y740
X13595Y740
X12595Y740
X12595Y23990
X12595Y24990
X13595Y24990
X13595Y23990
X14595Y23990
X15595Y23990
X15595Y24990
X14595Y24990
X16595Y24990
X17595Y24990
X17595Y23990
X16595Y23990
X18595Y23990
X19595Y23990
X19595Y24990
X18595Y24990
X20595Y24990
X21595Y24990
X21595Y23990
X20595Y23990
X22595Y23990
X23595Y23990
X23595Y24990
X22595Y24990
X24595Y24990
X25595Y24990
X25595Y23990
X24595Y23990
X26595Y23990
X26595Y24990
X27595Y24990
X28595Y24990
X28595Y23990
X27595Y23990
X29595Y23990
X30595Y23990
X30595Y24990
X29595Y24990
X31595Y24990
X31595Y23990
T06
X5976Y11093
X5976Y13907
T07
X37595Y19969
X37595Y16820
T08
X6904Y1281
X8675Y23525
X38051Y22829
X36431Y1281
M30
